<svg xmlns="http://www.w3.org/2000/svg" width="46" height="46" fill="none"><rect id="backgroundrect" width="100%" height="100%" x="0" y="0" fill="none" stroke="none"/>



<g class="currentLayer" style=""><title>Layer 1</title><circle opacity="0.7" cx="23" cy="23" r="23" fill="#D1D1D1" id="svg_1" class=""/><path d="M21.070500000000003,20.243299999999998 V25.8433 H20.494500000000002 V20.7553 H19.1745 V20.243299999999998 H21.070500000000003 zM23.8812,22.539299999999997 C24.6918,22.539299999999997 25.2812,22.685900000000004 25.6492,22.979300000000002 C26.0225,23.2673 26.209200000000003,23.672600000000003 26.209200000000003,24.195300000000003 C26.209200000000003,24.5206 26.1318,24.811300000000003 25.977200000000003,25.067300000000003 C25.827800000000003,25.323300000000003 25.6012,25.5259 25.297199999999997,25.6753 C24.9932,25.8193 24.619799999999998,25.8913 24.1772,25.8913 C23.7772,25.8913 23.3958,25.8273 23.0332,25.6993 C22.675800000000002,25.5659 22.3878,25.389899999999997 22.169200000000004,25.171300000000002 L22.449199999999998,24.7153 C22.635800000000003,24.9073 22.8812,25.0646 23.185200000000002,25.1873 C23.489199999999997,25.3046 23.8172,25.363300000000002 24.169200000000004,25.363300000000002 C24.633200000000002,25.363300000000002 24.990499999999997,25.259300000000003 25.2412,25.051299999999998 C25.4972,24.8433 25.6252,24.5659 25.6252,24.219299999999997 C25.6252,23.835299999999997 25.4812,23.544600000000003 25.193199999999997,23.347299999999997 C24.9105,23.149900000000002 24.430500000000002,23.051299999999998 23.7532,23.051299999999998 H22.5612 L22.849200000000003,20.243299999999998 H25.913200000000003 V20.7553 H23.3532 L23.1612,22.539299999999997 H23.8812 z" fill="white" id="svg_2" class=""/><path d="M11.5287,20.8975 L12.0242,20.9645 L12.0242,20.9645 L11.5287,20.8975 zM11.6495,22.642400000000002 C11.4298,22.8097 11.1161,22.7673 10.948799999999999,22.547600000000003 L8.222000000000001,18.9679 C8.0547,18.748199999999997 8.097100000000001,18.4345 8.3168,18.2671 C8.5364,18.099800000000002 8.850200000000001,18.142200000000003 9.017499999999998,18.3619 L11.441300000000002,21.5439 L14.6233,19.1201 C14.843,18.952800000000003 15.1567,18.9953 15.324000000000002,19.2149 C15.491399999999999,19.434600000000003 15.448900000000002,19.7483 15.229299999999999,19.9157 L11.6495,22.642400000000002 zM19.7453,33.7529 L19.8368,33.2613 L19.7453,33.7529 zM32.4801,19.0135 L32.0069,19.175400000000003 L32.0045,19.167900000000003 L32.4801,19.0135 zM12.0242,20.9645 L11.841999999999999,22.311700000000002 L10.850999999999999,22.177599999999998 L11.0332,20.8305 L12.0242,20.9645 zM17.5448,32.8348 L19.8368,33.2613 L19.6538,34.2444 L17.3618,33.8179 L17.5448,32.8348 zM11.0332,20.8305 C12.642399999999999,8.9332 29.2498,7.439799999999998 32.9556,18.8592 L32.0045,19.167900000000003 C28.6269,8.760100000000001 13.4909,10.121200000000002 12.0242,20.9645 L11.0332,20.8305 zM19.8368,33.2613 C27.9473,34.7705 34.6775,26.9809 32.007,19.175400000000003 L32.9531,18.8517 C35.8714,27.3814 28.516800000000003,35.8937 19.6538,34.2444 L19.8368,33.2613 z" fill="white" id="svg_3" class=""/></g></svg>