<svg width="56" height="55" viewBox="0 0 56 55" fill="none" xmlns="http://www.w3.org/2000/svg">
<path d="M22.8995 29.7379C26.3463 31.7279 27.9997 35.3172 27.9997 35.3172C27.9997 35.3172 24.0646 35.68 20.6177 33.69C17.1709 31.6999 15.5176 28.1106 15.5176 28.1106C15.5176 28.1106 19.4527 27.7478 22.8995 29.7379Z" fill="url(#paint0_linear_332_502)"/>
<path d="M35.3819 33.69C31.935 35.68 28 35.3172 28 35.3172C28 35.3172 29.6533 31.7279 33.1002 29.7379C36.547 27.7478 40.4821 28.1106 40.4821 28.1106C40.4821 28.1106 38.8287 31.6999 35.3819 33.69Z" fill="url(#paint1_linear_332_502)"/>
<path d="M26.1898 27.1012C28.4036 30.9357 28 35.3134 28 35.3134C28 35.3134 24.007 33.4741 21.7932 29.6396C19.5794 25.8051 19.9829 21.4275 19.9829 21.4275C19.9829 21.4275 23.9759 23.2667 26.1898 27.1012Z" fill="url(#paint2_linear_332_502)"/>
<path d="M34.2063 29.6396C31.9925 33.4742 27.9995 35.3134 27.9995 35.3134C27.9995 35.3134 27.5959 30.9358 29.8097 27.1013C32.0235 23.2668 36.0165 21.4275 36.0165 21.4275C36.0165 21.4275 36.4202 25.8051 34.2063 29.6396Z" fill="url(#paint3_linear_332_502)"/>
<path d="M30.6105 27.0705C30.6105 31.623 28.0006 35.3135 28.0006 35.3135C28.0006 35.3135 25.3906 31.623 25.3906 27.0705C25.3906 22.518 28.0006 18.8274 28.0006 18.8274C28.0006 18.8274 30.6105 22.518 30.6105 27.0705Z" fill="url(#paint4_linear_332_502)"/>
<path d="M23.8049 21.129C24.3626 21.129 24.8148 20.6768 24.8148 20.1191C24.8148 19.5613 24.3626 19.1091 23.8049 19.1091C23.2471 19.1091 22.7949 19.5613 22.7949 20.1191C22.7949 20.6768 23.2471 21.129 23.8049 21.129Z" fill="url(#paint5_linear_332_502)"/>
<path d="M32.1955 21.129C32.7533 21.129 33.2054 20.6768 33.2054 20.1191C33.2054 19.5613 32.7533 19.1091 32.1955 19.1091C31.6377 19.1091 31.1855 19.5613 31.1855 20.1191C31.1855 20.6768 31.6377 21.129 32.1955 21.129Z" fill="url(#paint6_linear_332_502)"/>
<g filter="url(#filter0_d_332_502)">
<path d="M28.0002 16.6749C28.5579 16.6749 29.0101 16.2227 29.0101 15.665C29.0101 15.1072 28.5579 14.655 28.0002 14.655C27.4424 14.655 26.9902 15.1072 26.9902 15.665C26.9902 16.2227 27.4424 16.6749 28.0002 16.6749Z" fill="url(#paint7_linear_332_502)"/>
</g>
<g filter="url(#filter1_d_332_502)">
<path d="M40.9307 27.8518C40.8467 27.7062 40.6971 27.6104 40.5298 27.595C40.4208 27.585 38.1338 27.3876 35.4866 28.1688C36.8236 24.7764 36.5475 21.5385 36.5329 21.3801C36.5174 21.2127 36.4217 21.0632 36.2761 20.9791C36.1305 20.8951 35.9532 20.8869 35.8004 20.9573C35.6798 21.0129 33.1078 22.2167 30.9127 24.7014C30.2884 21.2032 28.5139 18.657 28.4229 18.5284C28.3259 18.3912 28.1682 18.3096 28 18.3096C27.8318 18.3096 27.6742 18.3912 27.5771 18.5284C27.4862 18.657 25.7117 21.2031 25.0873 24.7014C22.8922 22.2167 20.3203 21.0129 20.1996 20.9573C20.047 20.887 19.8695 20.8951 19.7239 20.9791C19.5783 21.0632 19.4826 21.2127 19.4671 21.3801C19.4525 21.5386 19.1764 24.7765 20.5134 28.1689C17.8661 27.3877 15.579 27.585 15.4703 27.595C15.303 27.6104 15.1534 27.7062 15.0694 27.8518C14.9853 27.9974 14.9772 28.1747 15.0475 28.3274C15.1178 28.4801 16.8106 32.0898 20.3592 34.1386C22.9835 35.6538 25.8395 35.863 27.217 35.863C27.616 35.863 27.8908 35.8454 28.0001 35.837C28.1093 35.8455 28.384 35.863 28.7831 35.863C30.1607 35.863 33.0167 35.6537 35.641 34.1386C39.1896 32.0898 40.8822 28.4801 40.9526 28.3274C41.023 28.1748 41.0148 27.9974 40.9307 27.8518ZM35.5271 22.2772C35.5252 23.6794 35.3154 26.6841 33.7584 29.3808C32.5382 31.4944 30.7327 32.9893 29.426 33.8748C30.1966 32.3209 31.1281 29.8649 31.1281 27.0704C31.1281 26.7468 31.1152 26.4279 31.0919 26.1142C32.5966 24.1423 34.5114 22.8661 35.5271 22.2772ZM28.0002 19.808C28.7168 21.0511 30.0922 23.8557 30.0922 27.0706C30.0922 30.2854 28.7167 33.0901 28.0002 34.333C27.2835 33.09 25.9081 30.2853 25.9081 27.0705C25.9081 23.8557 27.2836 21.0509 28.0002 19.808ZM24.9085 26.1143C24.8852 26.428 24.8723 26.7469 24.8723 27.0705C24.8723 29.8668 25.805 32.3243 26.5758 33.878C25.2703 32.9943 23.4657 31.5006 22.2419 29.3808C20.6892 26.6915 20.4774 23.6822 20.4742 22.2778C21.4902 22.867 23.4043 24.143 24.9085 26.1143ZM16.3734 28.6037C17.3868 28.6117 19.2211 28.7436 21.1037 29.4601C21.1807 29.6068 21.2607 29.7532 21.3448 29.8988C22.6868 32.2231 24.6329 33.8286 26.035 34.7691C24.6351 34.6481 22.676 34.2801 20.8772 33.2415C18.5261 31.8841 17.0295 29.7164 16.3734 28.6037ZM35.1231 33.2415C33.3243 34.28 31.3652 34.6481 29.9653 34.7691C31.3674 33.8285 33.3136 32.2231 34.6554 29.8988C34.7395 29.7531 34.8196 29.6067 34.8967 29.46C36.7735 28.7458 38.6111 28.6134 39.6263 28.6046C38.9698 29.7178 37.4734 31.8846 35.1231 33.2415Z" fill="url(#paint8_linear_332_502)"/>
</g>
<path d="M23.8043 21.6471C24.6467 21.6471 25.3322 20.9617 25.3322 20.1192C25.3322 19.2768 24.6467 18.5913 23.8043 18.5913C22.9618 18.5913 22.2764 19.2768 22.2764 20.1192C22.2764 20.9617 22.9618 21.6471 23.8043 21.6471ZM23.8043 19.6272C24.0755 19.6272 24.2963 19.8479 24.2963 20.1192C24.2963 20.3905 24.0755 20.6112 23.8043 20.6112C23.533 20.6112 23.3123 20.3905 23.3123 20.1192C23.3123 19.8479 23.533 19.6272 23.8043 19.6272Z" fill="url(#paint9_linear_332_502)"/>
<path d="M32.1949 21.6471C33.0374 21.6471 33.7228 20.9617 33.7228 20.1192C33.7228 19.2768 33.0374 18.5913 32.1949 18.5913C31.3524 18.5913 30.667 19.2768 30.667 20.1192C30.667 20.9617 31.3524 21.6471 32.1949 21.6471ZM32.1949 19.6272C32.4662 19.6272 32.6869 19.8479 32.6869 20.1192C32.6869 20.3905 32.4662 20.6112 32.1949 20.6112C31.9236 20.6112 31.7029 20.3905 31.7029 20.1192C31.7029 19.8479 31.9236 19.6272 32.1949 19.6272Z" fill="url(#paint10_linear_332_502)"/>
<path d="M27.9996 17.1928C28.842 17.1928 29.5275 16.5073 29.5275 15.6649C29.5275 14.8224 28.842 14.137 27.9996 14.137C27.1571 14.137 26.4717 14.8224 26.4717 15.6649C26.4717 16.5073 27.1571 17.1928 27.9996 17.1928ZM27.9996 15.1728C28.2709 15.1728 28.4916 15.3936 28.4916 15.6649C28.4916 15.9361 28.2709 16.1569 27.9996 16.1569C27.7283 16.1569 27.5076 15.9361 27.5076 15.6649C27.5076 15.3936 27.7283 15.1728 27.9996 15.1728Z" fill="url(#paint11_linear_332_502)"/>
<path d="M28.0251 31.9929C28.0913 32.021 28.1601 32.0344 28.2279 32.0344C28.4292 32.0344 28.6207 31.9163 28.7046 31.7193C28.7101 31.7064 28.7607 31.5866 28.8355 31.3729C28.9301 31.1029 28.7879 30.8074 28.5179 30.7128C28.248 30.6184 27.9525 30.7604 27.8579 31.0304C27.7942 31.2121 27.7517 31.313 27.7515 31.3133C27.6394 31.5765 27.7619 31.8808 28.0251 31.9929Z" fill="url(#paint12_linear_332_502)"/>
<path d="M28.6681 30.1411C28.7025 30.148 28.7367 30.1513 28.7705 30.1513C29.0122 30.1513 29.2284 29.9812 29.2778 29.7351C29.4758 28.7483 29.5605 27.7593 29.5295 26.7957C29.5203 26.5098 29.2804 26.2854 28.9952 26.2947C28.7093 26.3039 28.485 26.5431 28.4942 26.829C28.5226 27.7132 28.4446 28.6224 28.2622 29.5313C28.2059 29.8118 28.3877 30.0848 28.6681 30.1411Z" fill="url(#paint13_linear_332_502)"/>
<defs>
<filter id="filter0_d_332_502" x="6.99023" y="0.655029" width="42.0195" height="42.0198" filterUnits="userSpaceOnUse" color-interpolation-filters="sRGB">
<feFlood flood-opacity="0" result="BackgroundImageFix"/>
<feColorMatrix in="SourceAlpha" type="matrix" values="0 0 0 0 0 0 0 0 0 0 0 0 0 0 0 0 0 0 127 0" result="hardAlpha"/>
<feOffset dy="6"/>
<feGaussianBlur stdDeviation="10"/>
<feComposite in2="hardAlpha" operator="out"/>
<feColorMatrix type="matrix" values="0 0 0 0 0.933333 0 0 0 0 0.223529 0 0 0 0 0.341176 0 0 0 1 0"/>
<feBlend mode="normal" in2="BackgroundImageFix" result="effect1_dropShadow_332_502"/>
<feBlend mode="normal" in="SourceGraphic" in2="effect1_dropShadow_332_502" result="shape"/>
</filter>
<filter id="filter1_d_332_502" x="0" y="7.30957" width="56" height="47.5535" filterUnits="userSpaceOnUse" color-interpolation-filters="sRGB">
<feFlood flood-opacity="0" result="BackgroundImageFix"/>
<feColorMatrix in="SourceAlpha" type="matrix" values="0 0 0 0 0 0 0 0 0 0 0 0 0 0 0 0 0 0 127 0" result="hardAlpha"/>
<feOffset dy="4"/>
<feGaussianBlur stdDeviation="7.5"/>
<feComposite in2="hardAlpha" operator="out"/>
<feColorMatrix type="matrix" values="0 0 0 0 0.933333 0 0 0 0 0.223529 0 0 0 0 0.341176 0 0 0 1 0"/>
<feBlend mode="normal" in2="BackgroundImageFix" result="effect1_dropShadow_332_502"/>
<feBlend mode="normal" in="SourceGraphic" in2="effect1_dropShadow_332_502" result="shape"/>
</filter>
<linearGradient id="paint0_linear_332_502" x1="21.7586" y1="28.0847" x2="21.7586" y2="35.3431" gradientUnits="userSpaceOnUse">
<stop stop-color="#EE3957"/>
<stop offset="1" stop-color="#FB717C"/>
</linearGradient>
<linearGradient id="paint1_linear_332_502" x1="34.241" y1="28.0847" x2="34.241" y2="35.3431" gradientUnits="userSpaceOnUse">
<stop stop-color="#EE3957"/>
<stop offset="1" stop-color="#FB717C"/>
</linearGradient>
<linearGradient id="paint2_linear_332_502" x1="23.9914" y1="21.4275" x2="23.9914" y2="35.3134" gradientUnits="userSpaceOnUse">
<stop stop-color="#EE3957"/>
<stop offset="1" stop-color="#FB717C"/>
</linearGradient>
<linearGradient id="paint3_linear_332_502" x1="32.008" y1="21.4275" x2="32.008" y2="35.3134" gradientUnits="userSpaceOnUse">
<stop stop-color="#EE3957"/>
<stop offset="1" stop-color="#FB717C"/>
</linearGradient>
<linearGradient id="paint4_linear_332_502" x1="28.0006" y1="18.8274" x2="28.0006" y2="35.3135" gradientUnits="userSpaceOnUse">
<stop stop-color="#EE3957"/>
<stop offset="1" stop-color="#FB717C"/>
</linearGradient>
<linearGradient id="paint5_linear_332_502" x1="23.8049" y1="19.1091" x2="23.8049" y2="21.129" gradientUnits="userSpaceOnUse">
<stop stop-color="#EE3957"/>
<stop offset="1" stop-color="#FB717C"/>
</linearGradient>
<linearGradient id="paint6_linear_332_502" x1="32.1955" y1="19.1091" x2="32.1955" y2="21.129" gradientUnits="userSpaceOnUse">
<stop stop-color="#EE3957"/>
<stop offset="1" stop-color="#FB717C"/>
</linearGradient>
<linearGradient id="paint7_linear_332_502" x1="28.0002" y1="14.655" x2="28.0002" y2="16.6749" gradientUnits="userSpaceOnUse">
<stop stop-color="#EE3957"/>
<stop offset="1" stop-color="#FB717C"/>
</linearGradient>
<linearGradient id="paint8_linear_332_502" x1="28.0001" y1="18.3096" x2="28.0001" y2="35.863" gradientUnits="userSpaceOnUse">
<stop stop-color="#EE3957"/>
<stop offset="1" stop-color="#FB717C"/>
</linearGradient>
<linearGradient id="paint9_linear_332_502" x1="23.8043" y1="18.5913" x2="23.8043" y2="21.6471" gradientUnits="userSpaceOnUse">
<stop stop-color="#EE3957"/>
<stop offset="1" stop-color="#FB717C"/>
</linearGradient>
<linearGradient id="paint10_linear_332_502" x1="32.1949" y1="18.5913" x2="32.1949" y2="21.6471" gradientUnits="userSpaceOnUse">
<stop stop-color="#EE3957"/>
<stop offset="1" stop-color="#FB717C"/>
</linearGradient>
<linearGradient id="paint11_linear_332_502" x1="27.9996" y1="14.137" x2="27.9996" y2="17.1928" gradientUnits="userSpaceOnUse">
<stop stop-color="#EE3957"/>
<stop offset="1" stop-color="#FB717C"/>
</linearGradient>
<linearGradient id="paint12_linear_332_502" x1="28.2874" y1="30.6836" x2="28.2874" y2="32.0344" gradientUnits="userSpaceOnUse">
<stop stop-color="#EE3957"/>
<stop offset="1" stop-color="#FB717C"/>
</linearGradient>
<linearGradient id="paint13_linear_332_502" x1="28.8938" y1="26.2944" x2="28.8938" y2="30.1513" gradientUnits="userSpaceOnUse">
<stop stop-color="#EE3957"/>
<stop offset="1" stop-color="#FB717C"/>
</linearGradient>
</defs>
</svg>
