<svg width="71" height="67" viewBox="0 0 71 67" fill="none" xmlns="http://www.w3.org/2000/svg">
<g filter="url(#filter0_d_332_477)">
<path d="M38.9996 24.506C40.8791 24.506 42.467 22.8527 42.467 20.8957C42.467 19.0315 40.944 17.5713 38.9996 17.5713C37.0553 17.5713 35.5322 19.0316 35.5322 20.8957C35.5322 22.8527 37.1202 24.506 38.9996 24.506Z" fill="url(#paint0_linear_332_477)"/>
</g>
<g filter="url(#filter1_d_332_477)">
<path d="M30.207 33.6333L32.7489 33.851L34.6409 29.7629C34.7509 29.5253 35.0114 29.3956 35.2672 29.4524C35.5229 29.5087 35.7052 29.7354 35.7052 29.9973V32.0068L41.8655 25.9421C40.8523 25.6509 39.7697 25.4978 38.9998 25.4978C37.4693 25.4978 34.7026 26.1023 33.7036 27.1954C32.6332 28.3666 30.6655 31.5953 29.4609 33.6384C29.7063 33.6058 29.9568 33.603 30.207 33.6333Z" fill="url(#paint1_linear_332_477)"/>
</g>
<g filter="url(#filter2_d_332_477)">
<path d="M49.374 35.1909C48.9762 34.8398 48.446 34.6757 47.9198 34.742L41.8438 35.5015L42.4843 38.4288H48.1494C49.1698 38.4288 49.9999 37.5986 49.9999 36.5782C49.9999 36.0477 49.7718 35.5421 49.374 35.1909Z" fill="url(#paint2_linear_332_477)"/>
</g>
<g filter="url(#filter3_d_332_477)">
<path d="M29.8507 34.7275C29.4023 34.7275 28.9658 34.8907 28.6259 35.1909C28.2281 35.5419 28 36.0475 28 36.5781C28 37.5985 28.8302 38.4287 29.8505 38.4287H41.3421L40.735 35.6547C40.7351 35.6548 29.927 34.7275 29.8507 34.7275Z" fill="url(#paint3_linear_332_477)"/>
</g>
<g filter="url(#filter4_d_332_477)">
<path d="M35.7052 34.104L40.0069 34.4724H41.0777L42.2946 34.3204V29.9971C42.2946 29.7352 42.4768 29.5085 42.7326 29.4522C42.9883 29.3956 43.2489 29.5252 43.3589 29.7627L45.2946 33.9453L47.7813 33.6345C48.0353 33.6029 48.2896 33.6051 48.5386 33.6382C47.3339 31.595 45.3662 28.3662 44.296 27.1952C44.002 26.8736 43.5544 26.5947 43.0309 26.3606L35.7051 33.5726V34.104H35.7052Z" fill="url(#paint4_linear_332_477)"/>
</g>
<defs>
<filter id="filter0_d_332_477" x="15.5322" y="1.57129" width="46.9346" height="46.9348" filterUnits="userSpaceOnUse" color-interpolation-filters="sRGB">
<feFlood flood-opacity="0" result="BackgroundImageFix"/>
<feColorMatrix in="SourceAlpha" type="matrix" values="0 0 0 0 0 0 0 0 0 0 0 0 0 0 0 0 0 0 127 0" result="hardAlpha"/>
<feOffset dy="4"/>
<feGaussianBlur stdDeviation="10"/>
<feComposite in2="hardAlpha" operator="out"/>
<feColorMatrix type="matrix" values="0 0 0 0 0.933333 0 0 0 0 0.223529 0 0 0 0 0.341176 0 0 0 1 0"/>
<feBlend mode="normal" in2="BackgroundImageFix" result="effect1_dropShadow_332_477"/>
<feBlend mode="normal" in="SourceGraphic" in2="effect1_dropShadow_332_477" result="shape"/>
</filter>
<filter id="filter1_d_332_477" x="0.460938" y="0.497803" width="70.4043" height="66.3533" filterUnits="userSpaceOnUse" color-interpolation-filters="sRGB">
<feFlood flood-opacity="0" result="BackgroundImageFix"/>
<feColorMatrix in="SourceAlpha" type="matrix" values="0 0 0 0 0 0 0 0 0 0 0 0 0 0 0 0 0 0 127 0" result="hardAlpha"/>
<feOffset dy="4"/>
<feGaussianBlur stdDeviation="14.5"/>
<feComposite in2="hardAlpha" operator="out"/>
<feColorMatrix type="matrix" values="0 0 0 0 0.933333 0 0 0 0 0.223529 0 0 0 0 0.341176 0 0 0 1 0"/>
<feBlend mode="normal" in2="BackgroundImageFix" result="effect1_dropShadow_332_477"/>
<feBlend mode="normal" in="SourceGraphic" in2="effect1_dropShadow_332_477" result="shape"/>
</filter>
<filter id="filter2_d_332_477" x="21.8438" y="18.7275" width="48.1562" height="43.7012" filterUnits="userSpaceOnUse" color-interpolation-filters="sRGB">
<feFlood flood-opacity="0" result="BackgroundImageFix"/>
<feColorMatrix in="SourceAlpha" type="matrix" values="0 0 0 0 0 0 0 0 0 0 0 0 0 0 0 0 0 0 127 0" result="hardAlpha"/>
<feOffset dy="4"/>
<feGaussianBlur stdDeviation="10"/>
<feComposite in2="hardAlpha" operator="out"/>
<feColorMatrix type="matrix" values="0 0 0 0 0.933333 0 0 0 0 0.223529 0 0 0 0 0.341176 0 0 0 1 0"/>
<feBlend mode="normal" in2="BackgroundImageFix" result="effect1_dropShadow_332_477"/>
<feBlend mode="normal" in="SourceGraphic" in2="effect1_dropShadow_332_477" result="shape"/>
</filter>
<filter id="filter3_d_332_477" x="8" y="18.7275" width="53.3418" height="43.7012" filterUnits="userSpaceOnUse" color-interpolation-filters="sRGB">
<feFlood flood-opacity="0" result="BackgroundImageFix"/>
<feColorMatrix in="SourceAlpha" type="matrix" values="0 0 0 0 0 0 0 0 0 0 0 0 0 0 0 0 0 0 127 0" result="hardAlpha"/>
<feOffset dy="4"/>
<feGaussianBlur stdDeviation="10"/>
<feComposite in2="hardAlpha" operator="out"/>
<feColorMatrix type="matrix" values="0 0 0 0 0.933333 0 0 0 0 0.223529 0 0 0 0 0.341176 0 0 0 1 0"/>
<feBlend mode="normal" in2="BackgroundImageFix" result="effect1_dropShadow_332_477"/>
<feBlend mode="normal" in="SourceGraphic" in2="effect1_dropShadow_332_477" result="shape"/>
</filter>
<filter id="filter4_d_332_477" x="15.7051" y="10.3606" width="52.834" height="48.1118" filterUnits="userSpaceOnUse" color-interpolation-filters="sRGB">
<feFlood flood-opacity="0" result="BackgroundImageFix"/>
<feColorMatrix in="SourceAlpha" type="matrix" values="0 0 0 0 0 0 0 0 0 0 0 0 0 0 0 0 0 0 127 0" result="hardAlpha"/>
<feOffset dy="4"/>
<feGaussianBlur stdDeviation="10"/>
<feComposite in2="hardAlpha" operator="out"/>
<feColorMatrix type="matrix" values="0 0 0 0 0.933333 0 0 0 0 0.223529 0 0 0 0 0.341176 0 0 0 1 0"/>
<feBlend mode="normal" in2="BackgroundImageFix" result="effect1_dropShadow_332_477"/>
<feBlend mode="normal" in="SourceGraphic" in2="effect1_dropShadow_332_477" result="shape"/>
</filter>
<linearGradient id="paint0_linear_332_477" x1="38.9996" y1="17.5713" x2="38.9996" y2="24.506" gradientUnits="userSpaceOnUse">
<stop stop-color="#EE3957"/>
<stop offset="1" stop-color="#FB717C"/>
</linearGradient>
<linearGradient id="paint1_linear_332_477" x1="35.6632" y1="25.4978" x2="35.6632" y2="33.851" gradientUnits="userSpaceOnUse">
<stop stop-color="#EE3957"/>
<stop offset="1" stop-color="#FB717C"/>
</linearGradient>
<linearGradient id="paint2_linear_332_477" x1="45.9218" y1="34.7275" x2="45.9218" y2="38.4288" gradientUnits="userSpaceOnUse">
<stop stop-color="#EE3957"/>
<stop offset="1" stop-color="#FB717C"/>
</linearGradient>
<linearGradient id="paint3_linear_332_477" x1="34.671" y1="34.7275" x2="34.671" y2="38.4287" gradientUnits="userSpaceOnUse">
<stop stop-color="#EE3957"/>
<stop offset="1" stop-color="#FB717C"/>
</linearGradient>
<linearGradient id="paint4_linear_332_477" x1="42.1219" y1="26.3606" x2="42.1219" y2="34.4724" gradientUnits="userSpaceOnUse">
<stop stop-color="#EE3957"/>
<stop offset="1" stop-color="#FB717C"/>
</linearGradient>
</defs>
</svg>
