<svg width="59" height="62" viewBox="0 0 59 62" fill="none" xmlns="http://www.w3.org/2000/svg">
<g filter="url(#filter0_d_332_473)">
<path d="M23.9111 39.3393C22.6268 39.3393 21.533 38.6912 20.985 37.6056C20.0969 35.8457 20.8913 33.5215 22.7934 32.3143C23.429 31.9109 24.1258 31.6781 24.8224 31.6343V23.4316C24.8224 22.6495 25.3255 21.972 26.0741 21.7457L35.918 18.7709C36.0834 18.7209 36.2548 18.6956 36.4276 18.6956C36.803 18.6956 37.1759 18.819 37.4775 19.0429C37.9228 19.3734 38.1886 19.902 38.1886 20.4568V32.0219C38.1886 32.0912 38.1803 32.1585 38.165 32.223C38.2044 33.6911 37.362 35.2077 36.0008 36.0716C35.292 36.5214 34.5072 36.7593 33.7314 36.7593C32.4473 36.7593 31.3533 36.1111 30.8053 35.0254C29.9173 33.2655 30.7115 30.9415 32.6136 29.7342C33.2564 29.3263 33.9617 29.0929 34.6663 29.0531V25.9483L28.3447 27.8506V34.7434C28.3447 34.7556 28.3444 34.7673 28.344 34.7793C28.3946 36.2685 27.5527 37.7807 26.1806 38.6516C25.4717 39.1015 24.6869 39.3393 23.9111 39.3393Z" fill="url(#paint0_linear_332_473)"/>
</g>
<path d="M37.3291 20.4568C37.3291 20.1714 37.1941 19.9029 36.9649 19.7327C36.7359 19.5627 36.4401 19.5109 36.1665 19.5935L26.3226 22.5683C25.9421 22.6833 25.6817 23.034 25.6817 23.4315V32.5556C24.9334 32.3815 24.056 32.5306 23.2538 33.0397C21.7436 33.9981 21.0712 35.8691 21.7521 37.2183C22.4332 38.5676 24.2097 38.8846 25.7199 37.926C26.883 37.1878 27.5483 35.9088 27.482 34.7435H27.4852V27.2118L35.5255 24.7923V29.9817C34.7719 29.7988 33.8847 29.9453 33.0741 30.4598C31.564 31.4182 30.8916 33.289 31.5724 34.6382C32.2534 35.9875 34.0299 36.3045 35.5402 35.346C36.7505 34.5779 37.4219 33.2239 37.2906 32.0217H37.3291V20.4568Z" fill="url(#paint1_linear_332_473)"/>
<defs>
<filter id="filter0_d_332_473" x="0.62207" y="0.695557" width="57.5664" height="60.6438" filterUnits="userSpaceOnUse" color-interpolation-filters="sRGB">
<feFlood flood-opacity="0" result="BackgroundImageFix"/>
<feColorMatrix in="SourceAlpha" type="matrix" values="0 0 0 0 0 0 0 0 0 0 0 0 0 0 0 0 0 0 127 0" result="hardAlpha"/>
<feOffset dy="2"/>
<feGaussianBlur stdDeviation="10"/>
<feComposite in2="hardAlpha" operator="out"/>
<feColorMatrix type="matrix" values="0 0 0 0 0.933333 0 0 0 0 0.223529 0 0 0 0 0.341176 0 0 0 1 0"/>
<feBlend mode="normal" in2="BackgroundImageFix" result="effect1_dropShadow_332_473"/>
<feBlend mode="normal" in="SourceGraphic" in2="effect1_dropShadow_332_473" result="shape"/>
</filter>
<linearGradient id="paint0_linear_332_473" x1="29.4053" y1="18.6956" x2="29.4053" y2="39.3393" gradientUnits="userSpaceOnUse">
<stop stop-color="#FB717C"/>
<stop offset="1" stop-color="#EE3957"/>
</linearGradient>
<linearGradient id="paint1_linear_332_473" x1="29.4077" y1="19.5549" x2="29.4077" y2="38.4799" gradientUnits="userSpaceOnUse">
<stop stop-color="#EE3957"/>
<stop offset="1" stop-color="#FB717C"/>
</linearGradient>
</defs>
</svg>
