<svg xmlns="http://www.w3.org/2000/svg" width="46" height="46" fill="none" style=""><rect id="backgroundrect" width="100%" height="100%" x="0" y="0" fill="none" stroke="none"/>



<g class="currentLayer" style=""><title>Layer 1</title><circle opacity="0.7" cx="23" cy="23" r="23" fill="#D1D1D1" id="svg_1" class=""/><path d="M21.070500000000003,20.243299999999998 V25.8433 H20.494500000000002 V20.7553 H19.174500000000002 V20.243299999999998 H21.070500000000003 zM23.8812,22.539299999999997 C24.6918,22.539299999999997 25.2812,22.685900000000004 25.6492,22.979300000000002 C26.0225,23.2673 26.209200000000003,23.672600000000003 26.209200000000003,24.195300000000003 C26.209200000000003,24.5206 26.1318,24.811300000000003 25.977200000000003,25.067300000000003 C25.827800000000003,25.323300000000003 25.6012,25.5259 25.297199999999997,25.6753 C24.9932,25.8193 24.619799999999998,25.8913 24.1772,25.8913 C23.7772,25.8913 23.3958,25.8273 23.0332,25.6993 C22.675800000000002,25.5659 22.3878,25.389899999999997 22.169200000000004,25.171300000000002 L22.449199999999998,24.7153 C22.635800000000003,24.9073 22.8812,25.0646 23.185200000000002,25.1873 C23.489199999999997,25.3046 23.8172,25.363300000000002 24.169200000000004,25.363300000000002 C24.633200000000002,25.363300000000002 24.990499999999997,25.259300000000003 25.2412,25.051299999999998 C25.4972,24.8433 25.6252,24.5659 25.6252,24.219299999999997 C25.6252,23.835299999999997 25.4812,23.544600000000003 25.193199999999997,23.347299999999997 C24.9105,23.149900000000002 24.430500000000002,23.051299999999998 23.7532,23.051299999999998 H22.5612 L22.849200000000003,20.243299999999998 H25.913200000000003 V20.7553 H23.3532 L23.1612,22.539299999999997 H23.8812 z" fill="white" id="svg_2" class=""/><path d="M33.4166,20.8975 L32.9211,20.9645 L32.9211,20.9645 L33.4166,20.8975 zM33.2958,22.642400000000002 C33.5155,22.8097 33.8292,22.7673 33.9966,22.547600000000003 L36.7233,18.9679 C36.8906,18.748199999999997 36.8482,18.4345 36.6285,18.2671 C36.4089,18.099800000000002 36.0951,18.142200000000003 35.9278,18.3619 L33.504,21.5439 L30.322000000000003,19.1201 C30.1023,18.952800000000003 29.788600000000002,18.9953 29.621299999999998,19.2149 C29.454,19.434600000000003 29.4964,19.7483 29.716099999999997,19.9157 L33.2958,22.642400000000002 zM25.200000000000003,33.7529 L25.1085,33.2613 L25.200000000000003,33.7529 zM12.4652,19.0135 L12.938400000000001,19.175400000000003 L12.9408,19.167900000000003 L12.4652,19.0135 zM32.9211,20.9645 L33.1033,22.311700000000002 L34.0943,22.177599999999998 L33.9121,20.8305 L32.9211,20.9645 zM27.4005,32.8348 L25.1085,33.2613 L25.2915,34.2444 L27.5835,33.8179 L27.4005,32.8348 zM33.9121,20.8305 C32.3029,8.9332 15.6955,7.439799999999998 11.9897,18.8592 L12.9408,19.167900000000003 C16.3184,8.760100000000001 31.454500000000003,10.121200000000002 32.9211,20.9645 L33.9121,20.8305 zM25.1085,33.2613 C16.998,34.7705 10.267800000000001,26.9809 12.938300000000002,19.175400000000003 L11.9922,18.8517 C9.073899999999998,27.3814 16.4285,35.8937 25.2915,34.2444 L25.1085,33.2613 z" fill="white" id="svg_3" class=""/></g></svg>