<svg width="62" height="58" viewBox="0 0 62 58" fill="none" xmlns="http://www.w3.org/2000/svg">
<g filter="url(#filter0_d_332_484)">
<path d="M36.1541 28.503C35.0999 28.5029 34.2422 27.6453 34.2422 26.5911V23.416C34.2422 22.3618 35.0999 21.5042 36.1541 21.5042H41.1357C41.1659 21.5042 41.1959 21.5051 41.2258 21.5064V18.3435C41.2258 17.5294 40.5658 16.8694 39.7516 16.8694H21.4742C20.66 16.8693 20 17.5293 20 18.3435V31.6636C20 32.4777 20.66 33.1378 21.4742 33.1378H39.7516C40.5658 33.1378 41.2258 32.4778 41.2258 31.6636V28.5007C41.1959 28.5021 41.1659 28.503 41.1357 28.503H36.1541Z" fill="url(#paint0_linear_332_484)"/>
</g>
<g filter="url(#filter1_d_332_484)">
<path d="M41.136 22.5518H36.1543C35.677 22.5518 35.29 22.9387 35.29 23.416V26.5911C35.29 27.0684 35.677 27.4553 36.1543 27.4553H41.136C41.6133 27.4553 42.0002 27.0684 42.0002 26.5911V23.416C42.0002 22.9387 41.6133 22.5518 41.136 22.5518ZM37.8709 26.2509C37.182 26.2509 36.6235 25.6924 36.6235 25.0035C36.6235 24.3146 37.182 23.7561 37.8709 23.7561C38.5598 23.7561 39.1183 24.3146 39.1183 25.0035C39.1183 25.6924 38.5598 26.2509 37.8709 26.2509Z" fill="url(#paint1_linear_332_484)"/>
</g>
<path d="M37.1849 14.169C36.8551 13.1707 35.7785 12.6289 34.7802 12.9587L27.291 15.4329H37.6024L37.1849 14.169Z" fill="url(#paint2_linear_332_484)"/>
<defs>
<filter id="filter0_d_332_484" x="0" y="0.869385" width="61.2256" height="56.2683" filterUnits="userSpaceOnUse" color-interpolation-filters="sRGB">
<feFlood flood-opacity="0" result="BackgroundImageFix"/>
<feColorMatrix in="SourceAlpha" type="matrix" values="0 0 0 0 0 0 0 0 0 0 0 0 0 0 0 0 0 0 127 0" result="hardAlpha"/>
<feOffset dy="4"/>
<feGaussianBlur stdDeviation="10"/>
<feComposite in2="hardAlpha" operator="out"/>
<feColorMatrix type="matrix" values="0 0 0 0 0.933333 0 0 0 0 0.223529 0 0 0 0 0.341176 0 0 0 1 0"/>
<feBlend mode="normal" in2="BackgroundImageFix" result="effect1_dropShadow_332_484"/>
<feBlend mode="normal" in="SourceGraphic" in2="effect1_dropShadow_332_484" result="shape"/>
</filter>
<filter id="filter1_d_332_484" x="15.29" y="6.55176" width="46.71" height="44.9036" filterUnits="userSpaceOnUse" color-interpolation-filters="sRGB">
<feFlood flood-opacity="0" result="BackgroundImageFix"/>
<feColorMatrix in="SourceAlpha" type="matrix" values="0 0 0 0 0 0 0 0 0 0 0 0 0 0 0 0 0 0 127 0" result="hardAlpha"/>
<feOffset dy="4"/>
<feGaussianBlur stdDeviation="10"/>
<feComposite in2="hardAlpha" operator="out"/>
<feColorMatrix type="matrix" values="0 0 0 0 0.933333 0 0 0 0 0.223529 0 0 0 0 0.341176 0 0 0 1 0"/>
<feBlend mode="normal" in2="BackgroundImageFix" result="effect1_dropShadow_332_484"/>
<feBlend mode="normal" in="SourceGraphic" in2="effect1_dropShadow_332_484" result="shape"/>
</filter>
<linearGradient id="paint0_linear_332_484" x1="30.6129" y1="16.8694" x2="30.6129" y2="33.1378" gradientUnits="userSpaceOnUse">
<stop stop-color="#EE3957"/>
<stop offset="1" stop-color="#FB717C"/>
</linearGradient>
<linearGradient id="paint1_linear_332_484" x1="38.6451" y1="22.5518" x2="38.6451" y2="27.4553" gradientUnits="userSpaceOnUse">
<stop stop-color="#EE3957"/>
<stop offset="1" stop-color="#FB717C"/>
</linearGradient>
<linearGradient id="paint2_linear_332_484" x1="32.4467" y1="12.8621" x2="32.4467" y2="15.4329" gradientUnits="userSpaceOnUse">
<stop stop-color="#EE3957"/>
<stop offset="0.984375" stop-color="#FB717C"/>
</linearGradient>
</defs>
</svg>
